# MagicaVoxel @ Ephtracy

# group
o 

# material
mtllib computer-gay.mtl
usemtl palette

# normals
vn -1 0 0
vn 1 0 0
vn 0 0 1
vn 0 0 -1
vn 0 -1 0
vn 0 1 0

# texcoords
vt 0.0136719 0.5
vt 0.0644531 0.5
vt 0.435547 0.5
vt 0.517578 0.5
vt 0.525391 0.5
vt 0.529297 0.5
vt 0.564453 0.5
vt 0.576172 0.5
vt 0.841797 0.5
vt 0.970703 0.5
vt 0.986328 0.5
vt 0.990234 0.5
vt 0.994141 0.5

# verts
v -0.6 0 0.6
v -0.6 0 -0.8
v -0.6 0.1 0.5
v -0.6 0.1 -0.1
v -0.6 0.1 -0.2
v -0.6 0.1 -0.5
v -0.6 0.1 -0.6
v -0.6 0.1 -0.7
v -0.6 0.2 0.5
v -0.6 0.2 -0.1
v -0.6 0.2 -0.2
v -0.6 0.2 -0.5
v -0.6 0.2 -0.6
v -0.6 0.2 -0.7
v -0.6 0.4 0.6
v -0.6 0.4 -0.8
v -0.5 0.4 0.4
v -0.5 0.4 -0.6
v -0.5 0.5 0.3
v -0.5 0.5 -0.5
v -0.5 0.7 0.1
v -0.5 0.7 -0.3
v -0.5 0.8 0
v -0.5 0.8 -0.2
v -0.5 0.9 0.1
v -0.5 0.9 0
v -0.5 0.9 -0.2
v -0.5 0.9 -0.3
v -0.5 1 0.1
v -0.5 1 0
v -0.5 1 -0.2
v -0.5 1 -0.3
v -0.5 1.1 0.1
v -0.5 1.1 0
v -0.5 1.1 -0.2
v -0.5 1.1 -0.3
v -0.5 1.3 0.3
v -0.5 1.3 -0.5
v -0.5 1.4 0.4
v -0.5 1.4 -0.6
v 0 1.2 0.3
v 0 1.2 -0.5
v 0 1.3 0.3
v 0 1.3 -0.5
v 0.3 1.1 0.3
v 0.3 1.1 -0.5
v 0.3 1.2 0.3
v 0.3 1.2 -0.5
v 0.4 0.5 0.3
v 0.4 0.5 0.1
v 0.4 0.5 -0.3
v 0.4 0.5 -0.5
v 0.4 0.6 0.2
v 0.4 0.6 0.1
v 0.4 0.6 -0.3
v 0.4 0.6 -0.4
v 0.4 0.7 0.3
v 0.4 0.7 0.2
v 0.4 0.7 -0.4
v 0.4 0.7 -0.5
v 0.4 1 0.3
v 0.4 1 0.2
v 0.4 1 0
v 0.4 1 -0.2
v 0.4 1 -0.4
v 0.4 1 -0.5
v 0.4 1.1 0.3
v 0.4 1.1 0.2
v 0.4 1.1 0
v 0.4 1.1 -0.2
v 0.4 1.1 -0.4
v 0.4 1.1 -0.5
v 0.6 0.1 0.5
v 0.6 0.1 0.1
v 0.6 0.1 0
v 0.6 0.1 -0.2
v 0.6 0.1 -0.7
v 0.6 0.3 0.5
v 0.6 0.3 0.4
v 0.6 0.3 0.1
v 0.6 0.3 0
v 0.6 0.3 -0.2
v 0.6 0.3 -0.6
v 0.6 0.3 -0.7
v -0.5 0.1 0.5
v -0.5 0.1 -0.1
v -0.5 0.1 -0.2
v -0.5 0.1 -0.5
v -0.5 0.1 -0.6
v -0.5 0.1 -0.7
v -0.5 0.2 0.5
v -0.5 0.2 -0.1
v -0.5 0.2 -0.2
v -0.5 0.2 -0.5
v -0.5 0.2 -0.6
v -0.5 0.2 -0.7
v -0.5 0.3 0.5
v -0.5 0.3 0.4
v -0.5 0.3 -0.6
v -0.5 0.3 -0.7
v -0.4 0.5 0.3
v -0.4 0.5 -0.5
v -0.4 0.7 0.1
v -0.4 0.7 -0.3
v -0.4 0.8 0
v -0.4 0.8 -0.2
v -0.4 0.9 0.1
v -0.4 0.9 0
v -0.4 0.9 -0.2
v -0.4 0.9 -0.3
v -0.4 1 0.1
v -0.4 1 0
v -0.4 1 -0.2
v -0.4 1 -0.3
v -0.4 1.1 0.1
v -0.4 1.1 0
v -0.4 1.1 -0.2
v -0.4 1.1 -0.3
v -0.4 1.3 0.3
v -0.4 1.3 -0.5
v 0 1.3 0.4
v 0 1.3 -0.6
v 0 1.4 0.4
v 0 1.4 -0.6
v 0.3 1.2 0.4
v 0.3 1.2 -0.6
v 0.3 1.3 0.4
v 0.3 1.3 -0.6
v 0.5 0.4 0
v 0.5 0.4 -0.2
v 0.5 0.5 0.4
v 0.5 0.5 0.1
v 0.5 0.5 0
v 0.5 0.5 -0.2
v 0.5 0.5 -0.3
v 0.5 0.5 -0.6
v 0.5 0.6 0.2
v 0.5 0.6 0.1
v 0.5 0.6 -0.3
v 0.5 0.6 -0.4
v 0.5 0.7 0.3
v 0.5 0.7 0.2
v 0.5 0.7 -0.4
v 0.5 0.7 -0.5
v 0.5 1 0.3
v 0.5 1 0.2
v 0.5 1 0
v 0.5 1 -0.2
v 0.5 1 -0.4
v 0.5 1 -0.5
v 0.5 1.1 0.2
v 0.5 1.1 0
v 0.5 1.1 -0.2
v 0.5 1.1 -0.4
v 0.5 1.2 0.4
v 0.5 1.2 -0.6
v 0.7 0 0.6
v 0.7 0 0.5
v 0.7 0 0
v 0.7 0 -0.2
v 0.7 0 -0.7
v 0.7 0 -0.8
v 0.7 0.4 0.6
v 0.7 0.4 0.5
v 0.7 0.4 0.4
v 0.7 0.4 0
v 0.7 0.4 -0.2
v 0.7 0.4 -0.6
v 0.7 0.4 -0.7
v 0.7 0.4 -0.8
v 0.7 0.5 0.4
v 0.7 0.5 0
v 0.7 0.5 -0.2
v 0.7 0.5 -0.6
v 0.9 0 0.5
v 0.9 0 0
v 0.9 0 -0.2
v 0.9 0 -0.7
v 0.9 0.4 0.5
v 0.9 0.4 0
v 0.9 0.4 -0.2
v 0.9 0.4 -0.7
v -0.6 0 0.6
v -0.6 0.4 0.6
v -0.3 0 0.6
v -0.3 0.4 0.6
v -0.1 0 0.6
v -0.1 0.4 0.6
v 0.1 0 0.6
v 0.1 0.4 0.6
v 0.3 0 0.6
v 0.3 0.4 0.6
v 0.5 0 0.6
v 0.5 0.4 0.6
v 0.7 0 0.6
v 0.7 0.4 0.6
v 0.7 0 0.5
v 0.7 0.4 0.5
v 0.9 0 0.5
v 0.9 0.4 0.5
v -0.5 0.4 0.4
v -0.5 1.4 0.4
v -0.3 0.4 0.4
v -0.3 1.4 0.4
v -0.1 0.4 0.4
v -0.1 1.4 0.4
v 0 1.3 0.4
v 0 1.4 0.4
v 0.1 0.4 0.4
v 0.1 1.3 0.4
v 0.3 0.4 0.4
v 0.3 1.2 0.4
v 0.3 1.3 0.4
v 0.5 0.4 0.4
v 0.5 0.5 0.4
v 0.5 1.2 0.4
v 0.7 0.4 0.4
v 0.7 0.5 0.4
v 0.5 0.4 -0.2
v 0.5 0.5 -0.2
v 0.7 0 -0.2
v 0.7 0.4 -0.2
v 0.7 0.5 -0.2
v 0.9 0 -0.2
v 0.9 0.4 -0.2
v -0.4 0.5 -0.5
v -0.4 1.3 -0.5
v -0.3 0.5 -0.5
v -0.3 1.3 -0.5
v -0.2 0.5 -0.5
v -0.1 0.5 -0.5
v -0.1 1.3 -0.5
v 0 0.5 -0.5
v 0 1.2 -0.5
v 0 1.3 -0.5
v 0.1 0.5 -0.5
v 0.1 1.2 -0.5
v 0.2 0.5 -0.5
v 0.3 0.5 -0.5
v 0.3 1.1 -0.5
v 0.3 1.2 -0.5
v 0.4 0.5 -0.5
v 0.4 0.7 -0.5
v 0.4 1 -0.5
v 0.4 1.1 -0.5
v -0.5 0.1 -0.7
v -0.5 0.2 -0.7
v -0.5 0.3 -0.7
v -0.3 0.1 -0.7
v -0.3 0.3 -0.7
v -0.1 0.1 -0.7
v -0.1 0.3 -0.7
v 0.1 0.1 -0.7
v 0.1 0.3 -0.7
v 0.3 0.1 -0.7
v 0.3 0.3 -0.7
v 0.5 0.1 -0.7
v 0.5 0.3 -0.7
v 0.6 0.1 -0.7
v 0.6 0.3 -0.7
v -0.5 0.1 0.5
v -0.5 0.2 0.5
v -0.5 0.3 0.5
v -0.3 0.1 0.5
v -0.3 0.3 0.5
v -0.1 0.1 0.5
v -0.1 0.3 0.5
v 0.1 0.1 0.5
v 0.1 0.3 0.5
v 0.3 0.1 0.5
v 0.3 0.3 0.5
v 0.5 0.1 0.5
v 0.5 0.3 0.5
v 0.6 0.1 0.5
v 0.6 0.3 0.5
v -0.4 0.5 0.3
v -0.4 1.3 0.3
v -0.3 0.5 0.3
v -0.3 1.3 0.3
v -0.2 0.5 0.3
v -0.1 0.5 0.3
v -0.1 1.3 0.3
v 0 0.5 0.3
v 0 1.2 0.3
v 0 1.3 0.3
v 0.1 0.5 0.3
v 0.1 1.2 0.3
v 0.2 0.5 0.3
v 0.3 0.5 0.3
v 0.3 1.1 0.3
v 0.3 1.2 0.3
v 0.4 0.5 0.3
v 0.4 0.7 0.3
v 0.4 1 0.3
v 0.4 1.1 0.3
v 0.5 0.4 0
v 0.5 0.5 0
v 0.7 0 0
v 0.7 0.4 0
v 0.7 0.5 0
v 0.9 0 0
v 0.9 0.4 0
v -0.5 0.4 -0.6
v -0.5 1.4 -0.6
v -0.3 0.4 -0.6
v -0.3 1.4 -0.6
v -0.1 0.4 -0.6
v -0.1 1.4 -0.6
v 0 1.3 -0.6
v 0 1.4 -0.6
v 0.1 0.4 -0.6
v 0.1 1.3 -0.6
v 0.3 0.4 -0.6
v 0.3 1.2 -0.6
v 0.3 1.3 -0.6
v 0.5 0.4 -0.6
v 0.5 0.5 -0.6
v 0.5 1.2 -0.6
v 0.7 0.4 -0.6
v 0.7 0.5 -0.6
v 0.7 0 -0.7
v 0.7 0.4 -0.7
v 0.9 0 -0.7
v 0.9 0.4 -0.7
v -0.6 0 -0.8
v -0.6 0.4 -0.8
v -0.3 0 -0.8
v -0.3 0.4 -0.8
v -0.1 0 -0.8
v -0.1 0.4 -0.8
v 0.1 0 -0.8
v 0.1 0.4 -0.8
v 0.3 0 -0.8
v 0.3 0.4 -0.8
v 0.5 0 -0.8
v 0.5 0.4 -0.8
v 0.7 0 -0.8
v 0.7 0.4 -0.8
v -0.6 0 0.6
v -0.3 0 0.6
v -0.1 0 0.6
v 0.1 0 0.6
v 0.3 0 0.6
v 0.5 0 0.6
v 0.7 0 0.6
v 0.7 0 0.5
v 0.9 0 0.5
v 0.7 0 0
v 0.9 0 0
v 0.7 0 -0.2
v 0.9 0 -0.2
v 0.7 0 -0.7
v 0.9 0 -0.7
v -0.6 0 -0.8
v -0.3 0 -0.8
v -0.1 0 -0.8
v 0.1 0 -0.8
v 0.3 0 -0.8
v 0.5 0 -0.8
v 0.7 0 -0.8
v -0.5 0.3 0.5
v -0.3 0.3 0.5
v -0.1 0.3 0.5
v 0.1 0.3 0.5
v 0.3 0.3 0.5
v 0.5 0.3 0.5
v 0.6 0.3 0.5
v -0.5 0.3 0.4
v -0.4 0.3 0.4
v 0.5 0.3 0.4
v 0.6 0.3 0.4
v -0.4 0.3 0.3
v -0.3 0.3 0.3
v -0.2 0.3 0.3
v -0.1 0.3 0.3
v 0 0.3 0.3
v 0.1 0.3 0.3
v 0.2 0.3 0.3
v 0.3 0.3 0.3
v 0.5 0.3 0.3
v 0.6 0.3 0.1
v 0.1 0.3 0
v 0.2 0.3 0
v 0.5 0.3 0
v 0.6 0.3 0
v 0.4 0.3 -0.1
v 0.5 0.3 -0.1
v -0.3 0.3 -0.2
v -0.2 0.3 -0.2
v 0.4 0.3 -0.2
v 0.5 0.3 -0.2
v 0.6 0.3 -0.2
v -0.4 0.3 -0.5
v -0.3 0.3 -0.5
v -0.1 0.3 -0.5
v 0 0.3 -0.5
v 0.1 0.3 -0.5
v 0.2 0.3 -0.5
v 0.3 0.3 -0.5
v 0.5 0.3 -0.5
v -0.5 0.3 -0.6
v -0.4 0.3 -0.6
v 0.5 0.3 -0.6
v 0.6 0.3 -0.6
v -0.5 0.3 -0.7
v -0.3 0.3 -0.7
v -0.1 0.3 -0.7
v 0.1 0.3 -0.7
v 0.3 0.3 -0.7
v 0.5 0.3 -0.7
v 0.6 0.3 -0.7
v 0.3 1.1 0.3
v 0.4 1.1 0.3
v 0.4 1.1 0.2
v 0.4 1.1 0
v 0.4 1.1 -0.2
v 0.4 1.1 -0.4
v 0.3 1.1 -0.5
v 0.4 1.1 -0.5
v 0 1.2 0.3
v 0.1 1.2 0.3
v 0.3 1.2 0.3
v 0 1.2 -0.5
v 0.1 1.2 -0.5
v 0.3 1.2 -0.5
v -0.4 1.3 0.3
v -0.3 1.3 0.3
v -0.1 1.3 0.3
v 0 1.3 0.3
v -0.4 1.3 -0.5
v -0.3 1.3 -0.5
v -0.1 1.3 -0.5
v 0 1.3 -0.5
v -0.5 0.1 0.5
v -0.3 0.1 0.5
v -0.1 0.1 0.5
v 0.1 0.1 0.5
v 0.3 0.1 0.5
v 0.5 0.1 0.5
v 0.6 0.1 0.5
v 0.6 0.1 0.1
v 0.6 0.1 0
v -0.5 0.1 -0.1
v -0.5 0.1 -0.2
v 0.6 0.1 -0.2
v -0.5 0.1 -0.5
v -0.5 0.1 -0.6
v -0.5 0.1 -0.7
v -0.3 0.1 -0.7
v -0.1 0.1 -0.7
v 0.1 0.1 -0.7
v 0.3 0.1 -0.7
v 0.5 0.1 -0.7
v 0.6 0.1 -0.7
v -0.6 0.4 0.6
v -0.3 0.4 0.6
v -0.1 0.4 0.6
v 0.1 0.4 0.6
v 0.3 0.4 0.6
v 0.5 0.4 0.6
v 0.7 0.4 0.6
v 0.7 0.4 0.5
v 0.9 0.4 0.5
v -0.5 0.4 0.4
v -0.3 0.4 0.4
v -0.1 0.4 0.4
v 0.1 0.4 0.4
v 0.3 0.4 0.4
v 0.5 0.4 0.4
v 0.7 0.4 0.4
v 0.5 0.4 0
v 0.7 0.4 0
v 0.9 0.4 0
v 0.5 0.4 -0.2
v 0.7 0.4 -0.2
v 0.9 0.4 -0.2
v -0.5 0.4 -0.6
v -0.3 0.4 -0.6
v -0.1 0.4 -0.6
v 0.1 0.4 -0.6
v 0.3 0.4 -0.6
v 0.5 0.4 -0.6
v 0.7 0.4 -0.6
v 0.7 0.4 -0.7
v 0.9 0.4 -0.7
v -0.6 0.4 -0.8
v -0.3 0.4 -0.8
v -0.1 0.4 -0.8
v 0.1 0.4 -0.8
v 0.3 0.4 -0.8
v 0.5 0.4 -0.8
v 0.7 0.4 -0.8
v 0.5 0.5 0.4
v 0.7 0.5 0.4
v -0.4 0.5 0.3
v -0.3 0.5 0.3
v -0.2 0.5 0.3
v -0.1 0.5 0.3
v 0 0.5 0.3
v 0.1 0.5 0.3
v 0.2 0.5 0.3
v 0.3 0.5 0.3
v 0.4 0.5 0.3
v 0.4 0.5 0.1
v 0.5 0.5 0.1
v 0.1 0.5 0
v 0.2 0.5 0
v 0.5 0.5 0
v 0.7 0.5 0
v 0.5 0.5 -0.2
v 0.7 0.5 -0.2
v 0.4 0.5 -0.3
v 0.5 0.5 -0.3
v -0.4 0.5 -0.5
v -0.3 0.5 -0.5
v -0.2 0.5 -0.5
v -0.1 0.5 -0.5
v 0 0.5 -0.5
v 0.1 0.5 -0.5
v 0.2 0.5 -0.5
v 0.3 0.5 -0.5
v 0.4 0.5 -0.5
v 0.5 0.5 -0.6
v 0.7 0.5 -0.6
v 0.3 1.2 0.4
v 0.5 1.2 0.4
v 0.3 1.2 -0.6
v 0.5 1.2 -0.6
v 0 1.3 0.4
v 0.1 1.3 0.4
v 0.3 1.3 0.4
v 0 1.3 -0.6
v 0.1 1.3 -0.6
v 0.3 1.3 -0.6
v -0.5 1.4 0.4
v -0.3 1.4 0.4
v -0.1 1.4 0.4
v 0 1.4 0.4
v -0.5 1.4 -0.6
v -0.3 1.4 -0.6
v -0.1 1.4 -0.6
v 0 1.4 -0.6

# faces
f 3/9/1 2/9/1 1/9/1
f 4/9/1 2/9/1 3/9/1
f 5/9/1 2/9/1 4/9/1
f 6/9/1 2/9/1 5/9/1
f 7/9/1 2/9/1 6/9/1
f 8/9/1 2/9/1 7/9/1
f 9/9/1 3/9/1 1/9/1
f 9/13/1 4/13/1 3/13/1
f 10/9/1 5/9/1 4/9/1
f 10/13/1 4/13/1 9/13/1
f 11/13/1 6/13/1 5/13/1
f 11/9/1 5/9/1 10/9/1
f 12/9/1 7/9/1 6/9/1
f 12/13/1 6/13/1 11/13/1
f 13/13/1 8/13/1 7/13/1
f 13/9/1 7/9/1 12/9/1
f 14/9/1 2/9/1 8/9/1
f 14/13/1 8/13/1 13/13/1
f 15/9/1 13/9/1 12/9/1
f 15/9/1 12/9/1 11/9/1
f 15/9/1 14/9/1 13/9/1
f 15/9/1 11/9/1 10/9/1
f 15/9/1 10/9/1 9/9/1
f 15/9/1 9/9/1 1/9/1
f 16/9/1 2/9/1 14/9/1
f 16/9/1 14/9/1 15/9/1
f 19/9/1 18/9/1 17/9/1
f 20/9/1 18/9/1 19/9/1
f 21/12/1 20/12/1 19/12/1
f 22/12/1 20/12/1 21/12/1
f 23/8/1 22/8/1 21/8/1
f 24/8/1 22/8/1 23/8/1
f 25/12/1 21/12/1 19/12/1
f 25/8/1 23/8/1 21/8/1
f 26/12/1 24/12/1 23/12/1
f 26/8/1 23/8/1 25/8/1
f 27/8/1 22/8/1 24/8/1
f 27/12/1 24/12/1 26/12/1
f 28/12/1 20/12/1 22/12/1
f 28/8/1 22/8/1 27/8/1
f 29/12/1 26/12/1 25/12/1
f 29/12/1 27/12/1 26/12/1
f 29/12/1 28/12/1 27/12/1
f 29/12/1 25/12/1 19/12/1
f 30/12/1 28/12/1 29/12/1
f 31/12/1 28/12/1 30/12/1
f 32/12/1 20/12/1 28/12/1
f 32/12/1 28/12/1 31/12/1
f 33/12/1 29/12/1 19/12/1
f 33/8/1 30/8/1 29/8/1
f 34/12/1 31/12/1 30/12/1
f 34/8/1 30/8/1 33/8/1
f 35/8/1 32/8/1 31/8/1
f 35/12/1 31/12/1 34/12/1
f 36/12/1 20/12/1 32/12/1
f 36/8/1 32/8/1 35/8/1
f 37/9/1 19/9/1 17/9/1
f 37/12/1 33/12/1 19/12/1
f 37/12/1 36/12/1 35/12/1
f 37/12/1 34/12/1 33/12/1
f 37/12/1 35/12/1 34/12/1
f 38/12/1 20/12/1 36/12/1
f 38/12/1 36/12/1 37/12/1
f 38/9/1 18/9/1 20/9/1
f 39/9/1 37/9/1 17/9/1
f 39/9/1 38/9/1 37/9/1
f 40/9/1 18/9/1 38/9/1
f 40/9/1 38/9/1 39/9/1
f 43/1/1 42/1/1 41/1/1
f 44/1/1 42/1/1 43/1/1
f 47/5/1 46/5/1 45/5/1
f 48/5/1 46/5/1 47/5/1
f 53/5/1 50/5/1 49/5/1
f 54/9/1 51/9/1 50/9/1
f 54/5/1 50/5/1 53/5/1
f 55/5/1 52/5/1 51/5/1
f 55/9/1 51/9/1 54/9/1
f 56/5/1 52/5/1 55/5/1
f 57/5/1 53/5/1 49/5/1
f 58/9/1 54/9/1 53/9/1
f 58/5/1 53/5/1 57/5/1
f 58/9/1 55/9/1 54/9/1
f 58/9/1 56/9/1 55/9/1
f 59/5/1 52/5/1 56/5/1
f 59/9/1 56/9/1 58/9/1
f 60/5/1 52/5/1 59/5/1
f 61/9/1 58/9/1 57/9/1
f 61/9/1 59/9/1 58/9/1
f 61/9/1 60/9/1 59/9/1
f 62/9/1 60/9/1 61/9/1
f 63/9/1 60/9/1 62/9/1
f 64/9/1 60/9/1 63/9/1
f 65/9/1 60/9/1 64/9/1
f 66/9/1 60/9/1 65/9/1
f 67/5/1 62/5/1 61/5/1
f 68/9/1 63/9/1 62/9/1
f 68/5/1 62/5/1 67/5/1
f 69/5/1 64/5/1 63/5/1
f 69/9/1 63/9/1 68/9/1
f 70/9/1 65/9/1 64/9/1
f 70/5/1 64/5/1 69/5/1
f 71/5/1 66/5/1 65/5/1
f 71/9/1 65/9/1 70/9/1
f 72/5/1 66/5/1 71/5/1
f 78/11/1 74/11/1 73/11/1
f 79/11/1 74/11/1 78/11/1
f 80/10/1 75/10/1 74/10/1
f 80/11/1 74/11/1 79/11/1
f 81/6/1 76/6/1 75/6/1
f 81/10/1 75/10/1 80/10/1
f 82/10/1 77/10/1 76/10/1
f 82/6/1 76/6/1 81/6/1
f 83/10/1 77/10/1 82/10/1
f 84/10/1 77/10/1 83/10/1
f 85/13/2 86/13/2 91/13/2
f 86/9/2 87/9/2 92/9/2
f 91/13/2 86/13/2 92/13/2
f 87/13/2 88/13/2 93/13/2
f 92/9/2 87/9/2 93/9/2
f 88/9/2 89/9/2 94/9/2
f 93/13/2 88/13/2 94/13/2
f 89/13/2 90/13/2 95/13/2
f 94/9/2 89/9/2 95/9/2
f 95/13/2 90/13/2 96/13/2
f 93/9/2 94/9/2 97/9/2
f 91/9/2 92/9/2 97/9/2
f 95/9/2 96/9/2 97/9/2
f 94/9/2 95/9/2 97/9/2
f 92/9/2 93/9/2 97/9/2
f 97/9/2 96/9/2 98/9/2
f 98/9/2 96/9/2 99/9/2
f 99/9/2 96/9/2 100/9/2
f 101/12/2 102/12/2 103/12/2
f 103/12/2 102/12/2 104/12/2
f 103/8/2 104/8/2 105/8/2
f 105/8/2 104/8/2 106/8/2
f 101/12/2 103/12/2 107/12/2
f 103/8/2 105/8/2 107/8/2
f 105/12/2 106/12/2 108/12/2
f 107/8/2 105/8/2 108/8/2
f 106/8/2 104/8/2 109/8/2
f 108/12/2 106/12/2 109/12/2
f 104/12/2 102/12/2 110/12/2
f 109/8/2 104/8/2 110/8/2
f 107/12/2 108/12/2 111/12/2
f 108/12/2 109/12/2 111/12/2
f 109/12/2 110/12/2 111/12/2
f 101/12/2 107/12/2 111/12/2
f 111/12/2 110/12/2 112/12/2
f 112/12/2 110/12/2 113/12/2
f 110/12/2 102/12/2 114/12/2
f 113/12/2 110/12/2 114/12/2
f 101/12/2 111/12/2 115/12/2
f 111/8/2 112/8/2 115/8/2
f 112/12/2 113/12/2 116/12/2
f 115/8/2 112/8/2 116/8/2
f 113/8/2 114/8/2 117/8/2
f 116/12/2 113/12/2 117/12/2
f 114/12/2 102/12/2 118/12/2
f 117/8/2 114/8/2 118/8/2
f 101/12/2 115/12/2 119/12/2
f 116/12/2 117/12/2 119/12/2
f 117/12/2 118/12/2 119/12/2
f 115/12/2 116/12/2 119/12/2
f 118/12/2 102/12/2 120/12/2
f 119/12/2 118/12/2 120/12/2
f 121/1/2 122/1/2 123/1/2
f 123/1/2 122/1/2 124/1/2
f 125/3/2 126/3/2 127/3/2
f 127/3/2 126/3/2 128/3/2
f 129/9/2 130/9/2 133/9/2
f 133/9/2 130/9/2 134/9/2
f 131/5/2 132/5/2 137/5/2
f 132/9/2 133/9/2 138/9/2
f 137/5/2 132/5/2 138/5/2
f 133/9/2 134/9/2 138/9/2
f 134/9/2 135/9/2 138/9/2
f 135/5/2 136/5/2 139/5/2
f 138/9/2 135/9/2 139/9/2
f 139/5/2 136/5/2 140/5/2
f 131/5/2 137/5/2 141/5/2
f 137/9/2 138/9/2 142/9/2
f 141/5/2 137/5/2 142/5/2
f 138/9/2 139/9/2 142/9/2
f 139/9/2 140/9/2 142/9/2
f 140/5/2 136/5/2 143/5/2
f 142/9/2 140/9/2 143/9/2
f 143/5/2 136/5/2 144/5/2
f 131/5/2 141/5/2 145/5/2
f 141/9/2 142/9/2 145/9/2
f 143/9/2 144/9/2 145/9/2
f 142/9/2 143/9/2 145/9/2
f 145/9/2 144/9/2 146/9/2
f 146/9/2 144/9/2 147/9/2
f 147/9/2 144/9/2 148/9/2
f 148/9/2 144/9/2 149/9/2
f 144/5/2 136/5/2 150/5/2
f 149/9/2 144/9/2 150/9/2
f 145/5/2 146/5/2 151/5/2
f 146/9/2 147/9/2 151/9/2
f 147/5/2 148/5/2 152/5/2
f 151/9/2 147/9/2 152/9/2
f 148/9/2 149/9/2 153/9/2
f 152/5/2 148/5/2 153/5/2
f 149/5/2 150/5/2 154/5/2
f 153/9/2 149/9/2 154/9/2
f 151/5/2 152/5/2 155/5/2
f 131/5/2 145/5/2 155/5/2
f 153/5/2 154/5/2 155/5/2
f 145/5/2 151/5/2 155/5/2
f 152/5/2 153/5/2 155/5/2
f 154/5/2 150/5/2 156/5/2
f 155/5/2 154/5/2 156/5/2
f 150/5/2 136/5/2 156/5/2
f 157/6/2 158/6/2 163/6/2
f 163/6/2 158/6/2 164/6/2
f 159/6/2 160/6/2 166/6/2
f 166/6/2 160/6/2 167/6/2
f 161/6/2 162/6/2 169/6/2
f 169/6/2 162/6/2 170/6/2
f 165/12/2 166/12/2 171/12/2
f 171/12/2 166/12/2 172/12/2
f 167/12/2 168/12/2 173/12/2
f 173/12/2 168/12/2 174/12/2
f 175/12/2 176/12/2 179/12/2
f 179/12/2 176/12/2 180/12/2
f 177/12/2 178/12/2 181/12/2
f 181/12/2 178/12/2 182/12/2
f 185/9/3 184/9/3 183/9/3
f 186/9/3 184/9/3 185/9/3
f 187/2/3 186/2/3 185/2/3
f 188/2/3 186/2/3 187/2/3
f 189/1/3 188/1/3 187/1/3
f 190/1/3 188/1/3 189/1/3
f 191/3/3 190/3/3 189/3/3
f 192/3/3 190/3/3 191/3/3
f 193/5/3 192/5/3 191/5/3
f 194/5/3 192/5/3 193/5/3
f 195/6/3 194/6/3 193/6/3
f 196/6/3 194/6/3 195/6/3
f 199/12/3 198/12/3 197/12/3
f 200/12/3 198/12/3 199/12/3
f 203/9/3 202/9/3 201/9/3
f 204/9/3 202/9/3 203/9/3
f 205/2/3 204/2/3 203/2/3
f 206/2/3 204/2/3 205/2/3
f 207/1/3 206/1/3 205/1/3
f 208/1/3 206/1/3 207/1/3
f 209/1/3 207/1/3 205/1/3
f 210/1/3 207/1/3 209/1/3
f 211/3/3 210/3/3 209/3/3
f 212/3/3 210/3/3 211/3/3
f 213/3/3 210/3/3 212/3/3
f 214/5/3 212/5/3 211/5/3
f 215/5/3 212/5/3 214/5/3
f 216/5/3 212/5/3 215/5/3
f 217/12/3 215/12/3 214/12/3
f 218/12/3 215/12/3 217/12/3
f 222/12/3 220/12/3 219/12/3
f 223/12/3 220/12/3 222/12/3
f 224/12/3 222/12/3 221/12/3
f 225/12/3 222/12/3 224/12/3
f 228/9/3 227/9/3 226/9/3
f 229/9/3 227/9/3 228/9/3
f 230/2/3 229/2/3 228/2/3
f 231/2/3 229/2/3 230/2/3
f 232/2/3 229/2/3 231/2/3
f 233/1/3 232/1/3 231/1/3
f 234/1/3 232/1/3 233/1/3
f 235/1/3 232/1/3 234/1/3
f 236/1/3 234/1/3 233/1/3
f 237/1/3 234/1/3 236/1/3
f 238/3/3 237/3/3 236/3/3
f 239/3/3 237/3/3 238/3/3
f 240/3/3 237/3/3 239/3/3
f 241/3/3 237/3/3 240/3/3
f 242/5/3 240/5/3 239/5/3
f 243/5/3 240/5/3 242/5/3
f 244/5/3 240/5/3 243/5/3
f 245/5/3 240/5/3 244/5/3
f 249/9/3 247/9/3 246/9/3
f 249/9/3 248/9/3 247/9/3
f 250/9/3 248/9/3 249/9/3
f 251/2/3 250/2/3 249/2/3
f 252/2/3 250/2/3 251/2/3
f 253/1/3 252/1/3 251/1/3
f 254/1/3 252/1/3 253/1/3
f 255/3/3 254/3/3 253/3/3
f 256/3/3 254/3/3 255/3/3
f 257/5/3 256/5/3 255/5/3
f 258/5/3 256/5/3 257/5/3
f 259/6/3 258/6/3 257/6/3
f 260/6/3 258/6/3 259/6/3
f 261/9/4 262/9/4 264/9/4
f 262/9/4 263/9/4 264/9/4
f 264/9/4 263/9/4 265/9/4
f 264/2/4 265/2/4 266/2/4
f 266/2/4 265/2/4 267/2/4
f 266/1/4 267/1/4 268/1/4
f 268/1/4 267/1/4 269/1/4
f 268/3/4 269/3/4 270/3/4
f 270/3/4 269/3/4 271/3/4
f 270/5/4 271/5/4 272/5/4
f 272/5/4 271/5/4 273/5/4
f 272/6/4 273/6/4 274/6/4
f 274/6/4 273/6/4 275/6/4
f 276/9/4 277/9/4 278/9/4
f 278/9/4 277/9/4 279/9/4
f 278/2/4 279/2/4 280/2/4
f 280/2/4 279/2/4 281/2/4
f 281/2/4 279/2/4 282/2/4
f 281/1/4 282/1/4 283/1/4
f 283/1/4 282/1/4 284/1/4
f 284/1/4 282/1/4 285/1/4
f 283/1/4 284/1/4 286/1/4
f 286/1/4 284/1/4 287/1/4
f 286/3/4 287/3/4 288/3/4
f 288/3/4 287/3/4 289/3/4
f 289/3/4 287/3/4 290/3/4
f 290/3/4 287/3/4 291/3/4
f 289/5/4 290/5/4 292/5/4
f 292/5/4 290/5/4 293/5/4
f 293/5/4 290/5/4 294/5/4
f 294/5/4 290/5/4 295/5/4
f 296/12/4 297/12/4 299/12/4
f 299/12/4 297/12/4 300/12/4
f 298/12/4 299/12/4 301/12/4
f 301/12/4 299/12/4 302/12/4
f 303/9/4 304/9/4 305/9/4
f 305/9/4 304/9/4 306/9/4
f 305/2/4 306/2/4 307/2/4
f 307/2/4 306/2/4 308/2/4
f 307/1/4 308/1/4 309/1/4
f 309/1/4 308/1/4 310/1/4
f 307/1/4 309/1/4 311/1/4
f 311/1/4 309/1/4 312/1/4
f 311/3/4 312/3/4 313/3/4
f 313/3/4 312/3/4 314/3/4
f 314/3/4 312/3/4 315/3/4
f 313/5/4 314/5/4 316/5/4
f 316/5/4 314/5/4 317/5/4
f 317/5/4 314/5/4 318/5/4
f 316/12/4 317/12/4 319/12/4
f 319/12/4 317/12/4 320/12/4
f 321/12/4 322/12/4 323/12/4
f 323/12/4 322/12/4 324/12/4
f 325/9/4 326/9/4 327/9/4
f 327/9/4 326/9/4 328/9/4
f 327/2/4 328/2/4 329/2/4
f 329/2/4 328/2/4 330/2/4
f 329/1/4 330/1/4 331/1/4
f 331/1/4 330/1/4 332/1/4
f 331/3/4 332/3/4 333/3/4
f 333/3/4 332/3/4 334/3/4
f 333/5/4 334/5/4 335/5/4
f 335/5/4 334/5/4 336/5/4
f 335/6/4 336/6/4 337/6/4
f 337/6/4 336/6/4 338/6/4
f 346/6/5 345/6/5 344/6/5
f 348/6/5 346/6/5 344/6/5
f 348/12/5 347/12/5 346/12/5
f 349/12/5 347/12/5 348/12/5
f 350/6/5 348/6/5 344/6/5
f 352/6/5 350/6/5 344/6/5
f 352/12/5 351/12/5 350/12/5
f 353/12/5 351/12/5 352/12/5
f 354/9/5 340/9/5 339/9/5
f 355/2/5 341/2/5 340/2/5
f 355/9/5 340/9/5 354/9/5
f 356/1/5 342/1/5 341/1/5
f 356/2/5 341/2/5 355/2/5
f 357/3/5 343/3/5 342/3/5
f 357/1/5 342/1/5 356/1/5
f 358/5/5 344/5/5 343/5/5
f 358/3/5 343/3/5 357/3/5
f 359/6/5 352/6/5 344/6/5
f 359/5/5 344/5/5 358/5/5
f 360/6/5 352/6/5 359/6/5
f 368/9/5 362/9/5 361/9/5
f 369/9/5 362/9/5 368/9/5
f 370/6/5 367/6/5 366/6/5
f 370/5/5 366/5/5 365/5/5
f 371/6/5 367/6/5 370/6/5
f 372/9/5 362/9/5 369/9/5
f 372/10/5 369/10/5 368/10/5
f 373/2/5 363/2/5 362/2/5
f 373/9/5 362/9/5 372/9/5
f 374/2/5 363/2/5 373/2/5
f 375/1/5 364/1/5 363/1/5
f 375/2/5 363/2/5 374/2/5
f 376/1/5 364/1/5 375/1/5
f 377/3/5 365/3/5 364/3/5
f 377/1/5 364/1/5 376/1/5
f 378/3/5 365/3/5 377/3/5
f 379/5/5 370/5/5 365/5/5
f 379/3/5 365/3/5 378/3/5
f 380/10/5 371/10/5 370/10/5
f 380/5/5 370/5/5 379/5/5
f 381/10/5 380/10/5 379/10/5
f 381/10/5 371/10/5 380/10/5
f 382/2/5 378/2/5 377/2/5
f 382/4/5 377/4/5 376/4/5
f 383/5/5 379/5/5 378/5/5
f 383/2/5 378/2/5 382/2/5
f 384/10/5 381/10/5 379/10/5
f 385/10/5 381/10/5 384/10/5
f 386/10/5 384/10/5 379/10/5
f 387/6/5 385/6/5 384/6/5
f 387/10/5 384/10/5 386/10/5
f 388/10/5 374/10/5 373/10/5
f 388/10/5 373/10/5 372/10/5
f 389/2/5 375/2/5 374/2/5
f 389/10/5 374/10/5 388/10/5
f 390/9/5 387/9/5 386/9/5
f 390/10/5 386/10/5 379/10/5
f 391/6/5 385/6/5 387/6/5
f 391/9/5 387/9/5 390/9/5
f 392/6/5 385/6/5 391/6/5
f 393/10/5 372/10/5 368/10/5
f 393/10/5 388/10/5 372/10/5
f 394/2/5 389/2/5 388/2/5
f 394/10/5 388/10/5 393/10/5
f 395/7/5 376/7/5 375/7/5
f 395/2/5 389/2/5 394/2/5
f 395/2/5 375/2/5 389/2/5
f 396/4/5 382/4/5 376/4/5
f 396/7/5 376/7/5 395/7/5
f 397/10/5 383/10/5 382/10/5
f 397/4/5 382/4/5 396/4/5
f 398/5/5 379/5/5 383/5/5
f 398/10/5 383/10/5 397/10/5
f 399/10/5 390/10/5 379/10/5
f 399/5/5 379/5/5 398/5/5
f 399/10/5 391/10/5 390/10/5
f 399/10/5 392/10/5 391/10/5
f 400/10/5 392/10/5 399/10/5
f 401/10/5 393/10/5 368/10/5
f 402/9/5 394/9/5 393/9/5
f 402/10/5 393/10/5 401/10/5
f 403/10/5 392/10/5 400/10/5
f 403/5/5 400/5/5 399/5/5
f 404/10/5 392/10/5 403/10/5
f 405/9/5 402/9/5 401/9/5
f 406/2/5 395/2/5 394/2/5
f 406/9/5 402/9/5 405/9/5
f 406/9/5 394/9/5 402/9/5
f 407/1/5 397/1/5 396/1/5
f 407/2/5 395/2/5 406/2/5
f 407/1/5 396/1/5 395/1/5
f 408/3/5 398/3/5 397/3/5
f 408/1/5 397/1/5 407/1/5
f 408/3/5 399/3/5 398/3/5
f 409/5/5 403/5/5 399/5/5
f 409/3/5 399/3/5 408/3/5
f 410/6/5 404/6/5 403/6/5
f 410/5/5 403/5/5 409/5/5
f 411/6/5 404/6/5 410/6/5
f 414/5/5 413/5/5 412/5/5
f 415/5/5 414/5/5 412/5/5
f 416/5/5 415/5/5 412/5/5
f 417/5/5 416/5/5 412/5/5
f 418/5/5 417/5/5 412/5/5
f 419/5/5 417/5/5 418/5/5
f 423/1/5 421/1/5 420/1/5
f 424/3/5 422/3/5 421/3/5
f 424/1/5 421/1/5 423/1/5
f 425/3/5 422/3/5 424/3/5
f 430/9/5 427/9/5 426/9/5
f 431/2/5 428/2/5 427/2/5
f 431/9/5 427/9/5 430/9/5
f 432/1/5 429/1/5 428/1/5
f 432/2/5 428/2/5 431/2/5
f 433/1/5 429/1/5 432/1/5
f 439/6/6 440/6/6 441/6/6
f 439/6/6 441/6/6 442/6/6
f 434/9/6 435/9/6 443/9/6
f 443/9/6 435/9/6 444/9/6
f 439/6/6 442/6/6 445/6/6
f 444/9/6 435/9/6 446/9/6
f 446/9/6 435/9/6 447/9/6
f 447/9/6 435/9/6 448/9/6
f 435/2/6 436/2/6 449/2/6
f 448/9/6 435/9/6 449/9/6
f 436/1/6 437/1/6 450/1/6
f 449/2/6 436/2/6 450/2/6
f 437/3/6 438/3/6 451/3/6
f 450/1/6 437/1/6 451/1/6
f 438/5/6 439/5/6 452/5/6
f 451/3/6 438/3/6 452/3/6
f 439/6/6 445/6/6 453/6/6
f 452/5/6 439/5/6 453/5/6
f 453/6/6 445/6/6 454/6/6
f 460/6/6 461/6/6 462/6/6
f 455/9/6 456/9/6 464/9/6
f 456/2/6 457/2/6 465/2/6
f 464/9/6 456/9/6 465/9/6
f 457/1/6 458/1/6 466/1/6
f 465/2/6 457/2/6 466/2/6
f 458/3/6 459/3/6 467/3/6
f 466/1/6 458/1/6 467/1/6
f 459/5/6 460/5/6 468/5/6
f 467/3/6 459/3/6 468/3/6
f 460/6/6 462/6/6 469/6/6
f 468/5/6 460/5/6 469/5/6
f 462/12/6 463/12/6 470/12/6
f 469/6/6 462/6/6 470/6/6
f 470/12/6 463/12/6 472/12/6
f 472/12/6 463/12/6 473/12/6
f 471/6/6 472/6/6 474/6/6
f 474/6/6 472/6/6 475/6/6
f 455/9/6 464/9/6 477/9/6
f 475/12/6 476/12/6 483/12/6
f 483/12/6 476/12/6 484/12/6
f 482/6/6 483/6/6 484/6/6
f 484/12/6 476/12/6 485/12/6
f 455/9/6 477/9/6 486/9/6
f 477/9/6 478/9/6 486/9/6
f 478/2/6 479/2/6 487/2/6
f 486/9/6 478/9/6 487/9/6
f 479/1/6 480/1/6 488/1/6
f 487/2/6 479/2/6 488/2/6
f 480/3/6 481/3/6 489/3/6
f 488/1/6 480/1/6 489/1/6
f 481/5/6 482/5/6 490/5/6
f 489/3/6 481/3/6 490/3/6
f 482/6/6 484/6/6 491/6/6
f 490/5/6 482/5/6 491/5/6
f 491/6/6 484/6/6 492/6/6
f 502/10/6 503/10/6 504/10/6
f 493/12/6 494/12/6 505/12/6
f 499/4/6 500/4/6 506/4/6
f 500/2/6 501/2/6 506/2/6
f 501/5/6 502/5/6 507/5/6
f 506/2/6 501/2/6 507/2/6
f 505/12/6 494/12/6 508/12/6
f 508/12/6 494/12/6 509/12/6
f 502/10/6 504/10/6 512/10/6
f 510/12/6 511/12/6 513/12/6
f 495/10/6 496/10/6 514/10/6
f 496/10/6 497/10/6 514/10/6
f 514/10/6 497/10/6 515/10/6
f 497/2/6 498/2/6 516/2/6
f 515/10/6 497/10/6 516/10/6
f 498/7/6 499/7/6 517/7/6
f 516/2/6 498/2/6 517/2/6
f 499/4/6 506/4/6 518/4/6
f 517/7/6 499/7/6 518/7/6
f 506/10/6 507/10/6 519/10/6
f 518/4/6 506/4/6 519/4/6
f 507/5/6 502/5/6 520/5/6
f 519/10/6 507/10/6 520/10/6
f 502/10/6 512/10/6 521/10/6
f 520/5/6 502/5/6 521/5/6
f 521/10/6 512/10/6 522/10/6
f 513/12/6 511/12/6 523/12/6
f 523/12/6 511/12/6 524/12/6
f 525/5/6 526/5/6 527/5/6
f 527/5/6 526/5/6 528/5/6
f 529/1/6 530/1/6 532/1/6
f 530/3/6 531/3/6 533/3/6
f 532/1/6 530/1/6 533/1/6
f 533/3/6 531/3/6 534/3/6
f 535/9/6 536/9/6 539/9/6
f 536/2/6 537/2/6 540/2/6
f 539/9/6 536/9/6 540/9/6
f 537/1/6 538/1/6 541/1/6
f 540/2/6 537/2/6 541/2/6
f 541/1/6 538/1/6 542/1/6
