# MagicaVoxel @ Ephtracy

# group
o 

# material
mtllib controller.mtl
usemtl palette

# normals
vn -1 0 0
vn 1 0 0
vn 0 0 1
vn 0 0 -1
vn 0 -1 0
vn 0 1 0

# texcoords
vt 0.845703 0.5
vt 0.966797 0.5
vt 0.974609 0.5
vt 0.978516 0.5
vt 0.986328 0.5
vt 0.994141 0.5

# verts
v -0.9 0 0.9
v -0.9 0 -0.3
v -0.9 0.2 0.9
v -0.9 0.2 -0.3
v -0.7 0.2 0.7
v -0.7 0.2 0.5
v -0.7 0.2 0.3
v -0.7 0.2 0.2
v -0.7 0.3 0.7
v -0.7 0.3 0.5
v -0.7 0.3 0.3
v -0.7 0.3 0.2
v -0.6 0 -0.3
v -0.6 0 -0.5
v -0.6 0.2 0.4
v -0.6 0.2 0.3
v -0.6 0.2 0.2
v -0.6 0.2 0.1
v -0.6 0.2 -0.3
v -0.6 0.2 -0.5
v -0.6 0.3 0.4
v -0.6 0.3 0.3
v -0.6 0.3 0.2
v -0.6 0.3 0.1
v -0.5 0 -0.5
v -0.5 0 -0.6
v -0.5 0.2 -0.5
v -0.5 0.2 -0.6
v -0.4 0 -0.6
v -0.4 0 -0.7
v -0.4 0.2 -0.6
v -0.4 0.2 -0.7
v -0.3 0 -0.7
v -0.3 0 -1
v -0.3 0.2 0.6
v -0.3 0.2 0.5
v -0.3 0.2 -0.7
v -0.3 0.2 -1
v -0.3 0.3 0.6
v -0.3 0.3 0.5
v 0.1 0.2 0.6
v 0.1 0.2 0.5
v 0.1 0.3 0.6
v 0.1 0.3 0.5
v 0.4 0.2 0.3
v 0.4 0.2 0.2
v 0.4 0.3 0.3
v 0.4 0.3 0.2
v 0.5 0.2 0.7
v 0.5 0.2 0.5
v 0.5 0.2 0.4
v 0.5 0.2 0.3
v 0.5 0.2 0.2
v 0.5 0.2 0.1
v 0.5 0.3 0.7
v 0.5 0.3 0.5
v 0.5 0.3 0.4
v 0.5 0.3 0.3
v 0.5 0.3 0.2
v 0.5 0.3 0.1
v -0.5 0.2 0.7
v -0.5 0.2 0.5
v -0.5 0.2 0.4
v -0.5 0.2 0.3
v -0.5 0.2 0.2
v -0.5 0.2 0.1
v -0.5 0.3 0.7
v -0.5 0.3 0.5
v -0.5 0.3 0.4
v -0.5 0.3 0.3
v -0.5 0.3 0.2
v -0.5 0.3 0.1
v -0.4 0 -0.3
v -0.4 0 -0.4
v -0.4 0.2 0.3
v -0.4 0.2 0.2
v -0.4 0.2 -0.3
v -0.4 0.2 -0.4
v -0.4 0.3 0.3
v -0.4 0.3 0.2
v -0.3 0 -0.4
v -0.3 0 -0.5
v -0.3 0.2 -0.4
v -0.3 0.2 -0.5
v -0.2 0 -0.5
v -0.2 0 -0.6
v -0.2 0.2 -0.5
v -0.2 0.2 -0.6
v -0.1 0 -0.6
v -0.1 0 -1
v -0.1 0.2 0.6
v -0.1 0.2 0.5
v -0.1 0.2 -0.6
v -0.1 0.2 -1
v -0.1 0.3 0.6
v -0.1 0.3 0.5
v 0.3 0.2 0.6
v 0.3 0.2 0.5
v 0.3 0.3 0.6
v 0.3 0.3 0.5
v 0.6 0.2 0.4
v 0.6 0.2 0.3
v 0.6 0.2 0.2
v 0.6 0.2 0.1
v 0.6 0.3 0.4
v 0.6 0.3 0.3
v 0.6 0.3 0.2
v 0.6 0.3 0.1
v 0.7 0.2 0.7
v 0.7 0.2 0.5
v 0.7 0.2 0.3
v 0.7 0.2 0.2
v 0.7 0.3 0.7
v 0.7 0.3 0.5
v 0.7 0.3 0.3
v 0.7 0.3 0.2
v 0.9 0 0.9
v 0.9 0 -0.3
v 0.9 0.2 0.9
v 0.9 0.2 -0.3
v -0.9 0 0.9
v -0.9 0.2 0.9
v 0.9 0 0.9
v 0.9 0.2 0.9
v -0.7 0.2 0.7
v -0.7 0.3 0.7
v -0.5 0.2 0.7
v -0.5 0.3 0.7
v 0.5 0.2 0.7
v 0.5 0.3 0.7
v 0.7 0.2 0.7
v 0.7 0.3 0.7
v -0.3 0.2 0.6
v -0.3 0.3 0.6
v -0.1 0.2 0.6
v -0.1 0.3 0.6
v 0.1 0.2 0.6
v 0.1 0.3 0.6
v 0.3 0.2 0.6
v 0.3 0.3 0.6
v -0.6 0.2 0.4
v -0.6 0.3 0.4
v -0.5 0.2 0.4
v -0.5 0.3 0.4
v 0.5 0.2 0.4
v 0.5 0.3 0.4
v 0.6 0.2 0.4
v 0.6 0.3 0.4
v -0.7 0.2 0.3
v -0.7 0.3 0.3
v -0.6 0.2 0.3
v -0.6 0.3 0.3
v -0.5 0.2 0.3
v -0.5 0.3 0.3
v -0.4 0.2 0.3
v -0.4 0.3 0.3
v 0.4 0.2 0.3
v 0.4 0.3 0.3
v 0.5 0.2 0.3
v 0.5 0.3 0.3
v 0.6 0.2 0.3
v 0.6 0.3 0.3
v 0.7 0.2 0.3
v 0.7 0.3 0.3
v -0.4 0 -0.4
v -0.4 0.2 -0.4
v -0.3 0 -0.4
v -0.3 0.2 -0.4
v -0.3 0 -0.5
v -0.3 0.2 -0.5
v -0.2 0 -0.5
v -0.2 0.2 -0.5
v -0.2 0 -0.6
v -0.2 0.2 -0.6
v -0.1 0 -0.6
v -0.1 0.2 -0.6
v -0.7 0.2 0.5
v -0.7 0.3 0.5
v -0.5 0.2 0.5
v -0.5 0.3 0.5
v -0.3 0.2 0.5
v -0.3 0.3 0.5
v -0.1 0.2 0.5
v -0.1 0.3 0.5
v 0.1 0.2 0.5
v 0.1 0.3 0.5
v 0.3 0.2 0.5
v 0.3 0.3 0.5
v 0.5 0.2 0.5
v 0.5 0.3 0.5
v 0.7 0.2 0.5
v 0.7 0.3 0.5
v -0.7 0.2 0.2
v -0.7 0.3 0.2
v -0.6 0.2 0.2
v -0.6 0.3 0.2
v -0.5 0.2 0.2
v -0.5 0.3 0.2
v -0.4 0.2 0.2
v -0.4 0.3 0.2
v 0.4 0.2 0.2
v 0.4 0.3 0.2
v 0.5 0.2 0.2
v 0.5 0.3 0.2
v 0.6 0.2 0.2
v 0.6 0.3 0.2
v 0.7 0.2 0.2
v 0.7 0.3 0.2
v -0.6 0.2 0.1
v -0.6 0.3 0.1
v -0.5 0.2 0.1
v -0.5 0.3 0.1
v 0.5 0.2 0.1
v 0.5 0.3 0.1
v 0.6 0.2 0.1
v 0.6 0.3 0.1
v -0.9 0 -0.3
v -0.9 0.2 -0.3
v -0.8 0 -0.3
v -0.8 0.2 -0.3
v -0.6 0 -0.3
v -0.6 0.2 -0.3
v -0.4 0 -0.3
v -0.4 0.2 -0.3
v -0.2 0 -0.3
v -0.2 0.2 -0.3
v 0.9 0 -0.3
v 0.9 0.2 -0.3
v -0.6 0 -0.5
v -0.6 0.2 -0.5
v -0.5 0 -0.5
v -0.5 0.2 -0.5
v -0.5 0 -0.6
v -0.5 0.2 -0.6
v -0.4 0 -0.6
v -0.4 0.2 -0.6
v -0.4 0 -0.7
v -0.4 0.2 -0.7
v -0.3 0 -0.7
v -0.3 0.2 -0.7
v -0.3 0 -1
v -0.3 0.2 -1
v -0.1 0 -1
v -0.1 0.2 -1
v -0.9 0 0.9
v 0.9 0 0.9
v -0.8 0 0
v -0.2 0 0
v -0.7 0 -0.1
v -0.3 0 -0.1
v -0.7 0 -0.2
v -0.6 0 -0.2
v -0.4 0 -0.2
v -0.3 0 -0.2
v -0.9 0 -0.3
v -0.8 0 -0.3
v -0.6 0 -0.3
v -0.4 0 -0.3
v -0.2 0 -0.3
v 0.9 0 -0.3
v -0.4 0 -0.4
v -0.3 0 -0.4
v -0.6 0 -0.5
v -0.5 0 -0.5
v -0.3 0 -0.5
v -0.2 0 -0.5
v -0.5 0 -0.6
v -0.4 0 -0.6
v -0.2 0 -0.6
v -0.1 0 -0.6
v -0.4 0 -0.7
v -0.3 0 -0.7
v -0.3 0 -1
v -0.1 0 -1
v -0.9 0.2 0.9
v 0.9 0.2 0.9
v -0.8 0.2 0.8
v -0.2 0.2 0.8
v -0.1 0.2 0.8
v 0.1 0.2 0.8
v 0.2 0.2 0.8
v 0.8 0.2 0.8
v -0.7 0.2 0.7
v -0.5 0.2 0.7
v -0.4 0.2 0.7
v -0.2 0.2 0.7
v -0.1 0.2 0.7
v 0.1 0.2 0.7
v 0.2 0.2 0.7
v 0.4 0.2 0.7
v 0.5 0.2 0.7
v 0.7 0.2 0.7
v -0.3 0.2 0.6
v -0.1 0.2 0.6
v 0.1 0.2 0.6
v 0.3 0.2 0.6
v -0.7 0.2 0.5
v -0.5 0.2 0.5
v -0.3 0.2 0.5
v -0.1 0.2 0.5
v 0.1 0.2 0.5
v 0.3 0.2 0.5
v 0.5 0.2 0.5
v 0.7 0.2 0.5
v -0.6 0.2 0.4
v -0.5 0.2 0.4
v -0.4 0.2 0.4
v -0.3 0.2 0.4
v -0.2 0.2 0.4
v 0.2 0.2 0.4
v 0.3 0.2 0.4
v 0.4 0.2 0.4
v 0.5 0.2 0.4
v 0.6 0.2 0.4
v -0.7 0.2 0.3
v -0.6 0.2 0.3
v -0.5 0.2 0.3
v -0.4 0.2 0.3
v -0.3 0.2 0.3
v -0.2 0.2 0.3
v -0.1 0.2 0.3
v 0.1 0.2 0.3
v 0.2 0.2 0.3
v 0.3 0.2 0.3
v 0.4 0.2 0.3
v 0.5 0.2 0.3
v 0.6 0.2 0.3
v 0.7 0.2 0.3
v -0.7 0.2 0.2
v -0.6 0.2 0.2
v -0.5 0.2 0.2
v -0.4 0.2 0.2
v 0.4 0.2 0.2
v 0.5 0.2 0.2
v 0.6 0.2 0.2
v 0.7 0.2 0.2
v -0.6 0.2 0.1
v -0.5 0.2 0.1
v 0.5 0.2 0.1
v 0.6 0.2 0.1
v -0.8 0.2 -0.1
v -0.7 0.2 -0.1
v -0.3 0.2 -0.1
v -0.2 0.2 -0.1
v -0.1 0.2 -0.1
v 0.1 0.2 -0.1
v 0.2 0.2 -0.1
v 0.8 0.2 -0.1
v -0.7 0.2 -0.2
v -0.6 0.2 -0.2
v -0.4 0.2 -0.2
v -0.3 0.2 -0.2
v -0.9 0.2 -0.3
v -0.8 0.2 -0.3
v -0.6 0.2 -0.3
v -0.4 0.2 -0.3
v -0.2 0.2 -0.3
v 0.9 0.2 -0.3
v -0.4 0.2 -0.4
v -0.3 0.2 -0.4
v -0.6 0.2 -0.5
v -0.5 0.2 -0.5
v -0.3 0.2 -0.5
v -0.2 0.2 -0.5
v -0.5 0.2 -0.6
v -0.4 0.2 -0.6
v -0.2 0.2 -0.6
v -0.1 0.2 -0.6
v -0.4 0.2 -0.7
v -0.3 0.2 -0.7
v -0.3 0.2 -1
v -0.1 0.2 -1
v -0.7 0.3 0.7
v -0.5 0.3 0.7
v 0.5 0.3 0.7
v 0.7 0.3 0.7
v -0.3 0.3 0.6
v -0.1 0.3 0.6
v 0.1 0.3 0.6
v 0.3 0.3 0.6
v -0.7 0.3 0.5
v -0.5 0.3 0.5
v -0.3 0.3 0.5
v -0.1 0.3 0.5
v 0.1 0.3 0.5
v 0.3 0.3 0.5
v 0.5 0.3 0.5
v 0.7 0.3 0.5
v -0.6 0.3 0.4
v -0.5 0.3 0.4
v 0.5 0.3 0.4
v 0.6 0.3 0.4
v -0.7 0.3 0.3
v -0.6 0.3 0.3
v -0.5 0.3 0.3
v -0.4 0.3 0.3
v 0.4 0.3 0.3
v 0.5 0.3 0.3
v 0.6 0.3 0.3
v 0.7 0.3 0.3
v -0.7 0.3 0.2
v -0.6 0.3 0.2
v -0.5 0.3 0.2
v -0.4 0.3 0.2
v 0.4 0.3 0.2
v 0.5 0.3 0.2
v 0.6 0.3 0.2
v 0.7 0.3 0.2
v -0.6 0.3 0.1
v -0.5 0.3 0.1
v 0.5 0.3 0.1
v 0.6 0.3 0.1

# faces
f 3/3/1 2/3/1 1/3/1
f 4/3/1 2/3/1 3/3/1
f 9/1/1 6/1/1 5/1/1
f 10/1/1 6/1/1 9/1/1
f 11/2/1 8/2/1 7/2/1
f 12/2/1 8/2/1 11/2/1
f 19/6/1 14/6/1 13/6/1
f 20/6/1 14/6/1 19/6/1
f 21/2/1 16/2/1 15/2/1
f 22/2/1 16/2/1 21/2/1
f 23/2/1 18/2/1 17/2/1
f 24/2/1 18/2/1 23/2/1
f 27/6/1 26/6/1 25/6/1
f 28/6/1 26/6/1 27/6/1
f 31/6/1 30/6/1 29/6/1
f 32/6/1 30/6/1 31/6/1
f 37/6/1 34/6/1 33/6/1
f 38/6/1 34/6/1 37/6/1
f 39/6/1 36/6/1 35/6/1
f 40/6/1 36/6/1 39/6/1
f 43/6/1 42/6/1 41/6/1
f 44/6/1 42/6/1 43/6/1
f 47/2/1 46/2/1 45/2/1
f 48/2/1 46/2/1 47/2/1
f 55/1/1 50/1/1 49/1/1
f 56/1/1 50/1/1 55/1/1
f 57/2/1 52/2/1 51/2/1
f 58/2/1 52/2/1 57/2/1
f 59/2/1 54/2/1 53/2/1
f 60/2/1 54/2/1 59/2/1
f 61/1/2 62/1/2 67/1/2
f 67/1/2 62/1/2 68/1/2
f 63/2/2 64/2/2 69/2/2
f 69/2/2 64/2/2 70/2/2
f 65/2/2 66/2/2 71/2/2
f 71/2/2 66/2/2 72/2/2
f 73/6/2 74/6/2 77/6/2
f 77/6/2 74/6/2 78/6/2
f 75/2/2 76/2/2 79/2/2
f 79/2/2 76/2/2 80/2/2
f 81/6/2 82/6/2 83/6/2
f 83/6/2 82/6/2 84/6/2
f 85/6/2 86/6/2 87/6/2
f 87/6/2 86/6/2 88/6/2
f 89/6/2 90/6/2 93/6/2
f 93/6/2 90/6/2 94/6/2
f 91/6/2 92/6/2 95/6/2
f 95/6/2 92/6/2 96/6/2
f 97/6/2 98/6/2 99/6/2
f 99/6/2 98/6/2 100/6/2
f 101/2/2 102/2/2 105/2/2
f 105/2/2 102/2/2 106/2/2
f 103/2/2 104/2/2 107/2/2
f 107/2/2 104/2/2 108/2/2
f 109/1/2 110/1/2 113/1/2
f 113/1/2 110/1/2 114/1/2
f 111/2/2 112/2/2 115/2/2
f 115/2/2 112/2/2 116/2/2
f 117/3/2 118/3/2 119/3/2
f 119/3/2 118/3/2 120/3/2
f 123/3/3 122/3/3 121/3/3
f 124/3/3 122/3/3 123/3/3
f 127/1/3 126/1/3 125/1/3
f 128/1/3 126/1/3 127/1/3
f 131/1/3 130/1/3 129/1/3
f 132/1/3 130/1/3 131/1/3
f 135/6/3 134/6/3 133/6/3
f 136/6/3 134/6/3 135/6/3
f 139/6/3 138/6/3 137/6/3
f 140/6/3 138/6/3 139/6/3
f 143/2/3 142/2/3 141/2/3
f 144/2/3 142/2/3 143/2/3
f 147/2/3 146/2/3 145/2/3
f 148/2/3 146/2/3 147/2/3
f 151/2/3 150/2/3 149/2/3
f 152/2/3 150/2/3 151/2/3
f 155/2/3 154/2/3 153/2/3
f 156/2/3 154/2/3 155/2/3
f 159/2/3 158/2/3 157/2/3
f 160/2/3 158/2/3 159/2/3
f 163/2/3 162/2/3 161/2/3
f 164/2/3 162/2/3 163/2/3
f 167/6/3 166/6/3 165/6/3
f 168/6/3 166/6/3 167/6/3
f 171/6/3 170/6/3 169/6/3
f 172/6/3 170/6/3 171/6/3
f 175/6/3 174/6/3 173/6/3
f 176/6/3 174/6/3 175/6/3
f 177/1/4 178/1/4 179/1/4
f 179/1/4 178/1/4 180/1/4
f 181/6/4 182/6/4 183/6/4
f 183/6/4 182/6/4 184/6/4
f 185/6/4 186/6/4 187/6/4
f 187/6/4 186/6/4 188/6/4
f 189/1/4 190/1/4 191/1/4
f 191/1/4 190/1/4 192/1/4
f 193/2/4 194/2/4 195/2/4
f 195/2/4 194/2/4 196/2/4
f 197/2/4 198/2/4 199/2/4
f 199/2/4 198/2/4 200/2/4
f 201/2/4 202/2/4 203/2/4
f 203/2/4 202/2/4 204/2/4
f 205/2/4 206/2/4 207/2/4
f 207/2/4 206/2/4 208/2/4
f 209/2/4 210/2/4 211/2/4
f 211/2/4 210/2/4 212/2/4
f 213/2/4 214/2/4 215/2/4
f 215/2/4 214/2/4 216/2/4
f 217/3/4 218/3/4 219/3/4
f 219/3/4 218/3/4 220/3/4
f 219/4/4 220/4/4 221/4/4
f 221/4/4 220/4/4 222/4/4
f 223/4/4 224/4/4 225/4/4
f 225/4/4 224/4/4 226/4/4
f 225/3/4 226/3/4 227/3/4
f 227/3/4 226/3/4 228/3/4
f 229/6/4 230/6/4 231/6/4
f 231/6/4 230/6/4 232/6/4
f 233/6/4 234/6/4 235/6/4
f 235/6/4 234/6/4 236/6/4
f 237/6/4 238/6/4 239/6/4
f 239/6/4 238/6/4 240/6/4
f 241/6/4 242/6/4 243/6/4
f 243/6/4 242/6/4 244/6/4
f 247/3/5 246/3/5 245/3/5
f 248/3/5 246/3/5 247/3/5
f 249/4/5 248/4/5 247/4/5
f 250/4/5 248/4/5 249/4/5
f 251/4/5 249/4/5 247/4/5
f 251/6/5 250/6/5 249/6/5
f 252/6/5 250/6/5 251/6/5
f 253/6/5 250/6/5 252/6/5
f 254/4/5 248/4/5 250/4/5
f 254/6/5 250/6/5 253/6/5
f 255/3/5 247/3/5 245/3/5
f 256/4/5 251/4/5 247/4/5
f 256/3/5 247/3/5 255/3/5
f 256/4/5 252/4/5 251/4/5
f 257/6/5 253/6/5 252/6/5
f 257/4/5 252/4/5 256/4/5
f 258/4/5 254/4/5 253/4/5
f 258/6/5 253/6/5 257/6/5
f 259/4/5 248/4/5 254/4/5
f 259/4/5 254/4/5 258/4/5
f 259/3/5 246/3/5 248/3/5
f 260/3/5 246/3/5 259/3/5
f 261/6/5 258/6/5 257/6/5
f 263/6/5 261/6/5 257/6/5
f 263/6/5 262/6/5 261/6/5
f 264/6/5 262/6/5 263/6/5
f 265/6/5 262/6/5 264/6/5
f 267/6/5 266/6/5 265/6/5
f 267/6/5 265/6/5 264/6/5
f 268/6/5 266/6/5 267/6/5
f 269/6/5 266/6/5 268/6/5
f 271/6/5 270/6/5 269/6/5
f 271/6/5 269/6/5 268/6/5
f 272/6/5 270/6/5 271/6/5
f 273/6/5 270/6/5 272/6/5
f 274/6/5 270/6/5 273/6/5
f 275/3/6 276/3/6 277/3/6
f 277/3/6 276/3/6 278/3/6
f 278/3/6 276/3/6 279/3/6
f 279/3/6 276/3/6 280/3/6
f 280/3/6 276/3/6 281/3/6
f 281/3/6 276/3/6 282/3/6
f 277/5/6 278/5/6 283/5/6
f 283/5/6 278/5/6 284/5/6
f 284/5/6 278/5/6 285/5/6
f 278/1/6 279/1/6 286/1/6
f 285/5/6 278/5/6 286/5/6
f 279/5/6 280/5/6 287/5/6
f 286/1/6 279/1/6 287/1/6
f 280/1/6 281/1/6 288/1/6
f 287/5/6 280/5/6 288/5/6
f 281/5/6 282/5/6 289/5/6
f 288/1/6 281/1/6 289/1/6
f 289/5/6 282/5/6 290/5/6
f 290/5/6 282/5/6 291/5/6
f 291/5/6 282/5/6 292/5/6
f 285/2/6 286/2/6 293/2/6
f 286/2/6 287/2/6 293/2/6
f 287/2/6 288/2/6 293/2/6
f 289/2/6 290/2/6 293/2/6
f 288/2/6 289/2/6 293/2/6
f 293/2/6 290/2/6 294/2/6
f 294/2/6 290/2/6 295/2/6
f 295/2/6 290/2/6 296/2/6
f 277/5/6 283/5/6 297/5/6
f 284/5/6 285/5/6 298/5/6
f 285/2/6 293/2/6 299/2/6
f 294/2/6 295/2/6 300/2/6
f 300/2/6 295/2/6 301/2/6
f 296/2/6 290/2/6 302/2/6
f 290/5/6 291/5/6 303/5/6
f 292/5/6 282/5/6 304/5/6
f 297/5/6 298/5/6 305/5/6
f 298/5/6 285/5/6 306/5/6
f 305/5/6 298/5/6 306/5/6
f 301/2/6 302/2/6 307/2/6
f 306/5/6 285/5/6 307/5/6
f 300/2/6 301/2/6 307/2/6
f 285/2/6 299/2/6 307/2/6
f 299/2/6 300/2/6 307/2/6
f 307/2/6 302/2/6 308/2/6
f 308/2/6 302/2/6 309/2/6
f 309/2/6 302/2/6 310/2/6
f 302/2/6 290/2/6 311/2/6
f 310/2/6 302/2/6 311/2/6
f 290/5/6 303/5/6 312/5/6
f 311/2/6 290/2/6 312/2/6
f 303/5/6 304/5/6 312/5/6
f 312/5/6 304/5/6 313/5/6
f 313/5/6 304/5/6 314/5/6
f 277/5/6 297/5/6 315/5/6
f 297/5/6 305/5/6 315/5/6
f 315/5/6 305/5/6 316/5/6
f 306/5/6 307/5/6 317/5/6
f 307/5/6 308/5/6 317/5/6
f 317/5/6 308/5/6 318/5/6
f 308/1/6 309/1/6 319/1/6
f 318/5/6 308/5/6 319/5/6
f 309/5/6 310/5/6 320/5/6
f 319/1/6 309/1/6 320/1/6
f 320/5/6 310/5/6 321/5/6
f 321/5/6 310/5/6 322/5/6
f 310/1/6 311/1/6 323/1/6
f 322/5/6 310/5/6 323/5/6
f 312/5/6 313/5/6 324/5/6
f 323/1/6 311/1/6 324/1/6
f 311/5/6 312/5/6 324/5/6
f 324/5/6 313/5/6 325/5/6
f 325/5/6 313/5/6 326/5/6
f 314/5/6 304/5/6 327/5/6
f 304/5/6 282/5/6 328/5/6
f 327/5/6 304/5/6 328/5/6
f 277/5/6 315/5/6 329/5/6
f 318/5/6 319/5/6 332/5/6
f 319/5/6 320/5/6 332/5/6
f 324/5/6 325/5/6 333/5/6
f 323/5/6 324/5/6 333/5/6
f 328/5/6 282/5/6 336/5/6
f 329/5/6 330/5/6 337/5/6
f 331/5/6 332/5/6 338/5/6
f 333/5/6 334/5/6 339/5/6
f 335/5/6 336/5/6 340/5/6
f 275/3/6 277/3/6 341/3/6
f 337/5/6 338/5/6 341/5/6
f 329/5/6 337/5/6 341/5/6
f 277/5/6 329/5/6 341/5/6
f 341/5/6 338/5/6 342/5/6
f 332/5/6 320/5/6 343/5/6
f 342/5/6 338/5/6 343/5/6
f 338/5/6 332/5/6 343/5/6
f 320/1/6 321/1/6 344/1/6
f 343/5/6 320/5/6 344/5/6
f 321/5/6 322/5/6 345/5/6
f 344/1/6 321/1/6 345/1/6
f 322/1/6 323/1/6 346/1/6
f 345/5/6 322/5/6 346/5/6
f 339/5/6 340/5/6 347/5/6
f 346/1/6 323/1/6 347/1/6
f 333/5/6 339/5/6 347/5/6
f 323/5/6 333/5/6 347/5/6
f 282/3/6 276/3/6 348/3/6
f 347/5/6 340/5/6 348/5/6
f 340/5/6 336/5/6 348/5/6
f 336/5/6 282/5/6 348/5/6
f 342/6/6 343/6/6 349/6/6
f 341/4/6 342/4/6 349/4/6
f 349/6/6 343/6/6 350/6/6
f 350/6/6 343/6/6 351/6/6
f 343/4/6 344/4/6 352/4/6
f 351/6/6 343/6/6 352/6/6
f 275/3/6 341/3/6 353/3/6
f 341/4/6 349/4/6 354/4/6
f 353/3/6 341/3/6 354/3/6
f 349/4/6 350/4/6 354/4/6
f 350/6/6 351/6/6 355/6/6
f 354/4/6 350/4/6 355/4/6
f 351/4/6 352/4/6 356/4/6
f 355/6/6 351/6/6 356/6/6
f 345/3/6 346/3/6 357/3/6
f 356/4/6 352/4/6 357/4/6
f 346/3/6 347/3/6 357/3/6
f 344/3/6 345/3/6 357/3/6
f 347/3/6 348/3/6 357/3/6
f 352/4/6 344/4/6 357/4/6
f 348/3/6 276/3/6 358/3/6
f 357/3/6 348/3/6 358/3/6
f 355/6/6 356/6/6 359/6/6
f 355/6/6 359/6/6 361/6/6
f 359/6/6 360/6/6 361/6/6
f 361/6/6 360/6/6 362/6/6
f 362/6/6 360/6/6 363/6/6
f 363/6/6 364/6/6 365/6/6
f 362/6/6 363/6/6 365/6/6
f 365/6/6 364/6/6 366/6/6
f 366/6/6 364/6/6 367/6/6
f 367/6/6 368/6/6 369/6/6
f 366/6/6 367/6/6 369/6/6
f 369/6/6 368/6/6 370/6/6
f 370/6/6 368/6/6 371/6/6
f 371/6/6 368/6/6 372/6/6
f 373/1/6 374/1/6 381/1/6
f 381/1/6 374/1/6 382/1/6
f 377/6/6 378/6/6 383/6/6
f 383/6/6 378/6/6 384/6/6
f 379/6/6 380/6/6 385/6/6
f 385/6/6 380/6/6 386/6/6
f 375/1/6 376/1/6 387/1/6
f 387/1/6 376/1/6 388/1/6
f 389/2/6 390/2/6 394/2/6
f 394/2/6 390/2/6 395/2/6
f 391/2/6 392/2/6 398/2/6
f 398/2/6 392/2/6 399/2/6
f 395/2/6 396/2/6 401/2/6
f 393/2/6 394/2/6 401/2/6
f 394/2/6 395/2/6 401/2/6
f 401/2/6 396/2/6 402/2/6
f 402/2/6 396/2/6 403/2/6
f 403/2/6 396/2/6 404/2/6
f 399/2/6 400/2/6 405/2/6
f 398/2/6 399/2/6 405/2/6
f 397/2/6 398/2/6 405/2/6
f 405/2/6 400/2/6 406/2/6
f 406/2/6 400/2/6 407/2/6
f 407/2/6 400/2/6 408/2/6
f 402/2/6 403/2/6 409/2/6
f 409/2/6 403/2/6 410/2/6
f 406/2/6 407/2/6 411/2/6
f 411/2/6 407/2/6 412/2/6
